<svg version="1.2" xmlns="http://www.w3.org/2000/svg" viewBox="0 0 88 88" width="88" height="88">
	<title>uw-crest-color-web-digital-svg</title>
	<defs>
		<radialGradient id="g1" cx="0" cy="0" r="1" gradientUnits="userSpaceOnUse" gradientTransform="matrix(36.45,0,0,36.45,43.76,43.717)">
			<stop offset=".17" stop-color="#ffffff"/>
			<stop offset=".3" stop-color="#f6ede4"/>
			<stop offset=".69" stop-color="#debe9b"/>
			<stop offset=".87" stop-color="#d4ac7f"/>
		</radialGradient>
	</defs>
	<style>
		.s0 { fill: url(#g1) } 
		.s1 { fill: #282728 } 
		.s2 { fill: #c5050c } 
		.s3 { fill: #ffffff } 
	</style>
	<path id="Layer" class="s0" d="m43.8 87q-0.2-0.1-0.4-0.2-0.1-0.2-0.2-0.3-0.2-0.2-0.3-0.3-0.1-0.2-0.2-0.4h-0.1-0.1c-18.1-4.3-28.2-32.2-25.9-54.4q0.1-1 0.2-1.9 0.1-0.9 0.3-1.8 0.1-0.9 0.3-1.8 0.2-0.9 0.5-1.8 0.2-0.8 0.4-1.6 0.3-0.9 0.6-1.7 0.3-0.8 0.6-1.5 0.3-0.8 0.7-1.6 0.4-0.8 0.8-1.5 0.4-0.7 0.9-1.5 0.4-0.7 1-1.3 0.5-0.7 1-1.3 1.1-1.2 2.3-2.2 1.2-0.9 2.6-1.6 1.4-0.6 2.9-1 1.5-0.3 3.1-0.4 0 0 0.1 0 0 0 0.1-0.1 0 0 0 0 0.1-0.1 0.1-0.2 0.3-0.5 0.7-0.9 0.4-0.5 0.9-0.8 0.5-0.3 1.1-0.5 0.6-0.3 1.2-0.4h0.2v-0.2q0.1-0.7 0.6-1.4 0.4-0.6 1-1.1 0.7-0.5 1.4-0.8 0.8-0.2 1.6-0.2 0.7 0 1.5 0.2 0.7 0.3 1.3 0.8 0.6 0.5 1.1 1.1 0.4 0.7 0.6 1.4v0.2h0.2q0.6 0.1 1.2 0.3 0.5 0.2 1.1 0.6 0.5 0.3 0.9 0.8 0.4 0.4 0.7 0.9 0 0.1 0.1 0.2 0 0 0.1 0 0 0.1 0.1 0.1 0 0 0.1 0 1.5 0 3 0.4 1.5 0.4 2.9 1 1.4 0.7 2.6 1.6 1.3 1 2.3 2.1 0.6 0.8 1.2 1.6 0.6 0.8 1.2 1.6 0.5 0.9 1 1.7 0.4 0.9 0.8 1.8l0.2 0.6q0.6 1.4 1.1 2.9 0.4 1.5 0.8 3 0.4 1.5 0.6 3 0.3 1.5 0.4 3.1c2.3 22.3-7.8 50.2-25.9 54.4h-0.1l-0.1 0.1q-0.1 0.2-0.2 0.3-0.1 0.2-0.3 0.4-0.1 0.1-0.2 0.2-0.2 0.2-0.3 0.3z"/>
	<path id="Layer" fill-rule="evenodd" class="s1" d="m45 86q-0.1 0.2-0.2 0.4-0.2 0.2-0.3 0.3-0.2 0.2-0.4 0.3-0.1 0.2-0.3 0.3-0.3-0.1-0.4-0.3-0.2-0.1-0.4-0.3-0.1-0.1-0.3-0.3-0.1-0.2-0.2-0.4c-18.3-4.3-28.5-32.1-26.2-54.7q0-0.7 0.1-1.4 0.1-0.6 0.2-1.3 0.1-0.7 0.3-1.4 0.1-0.7 0.2-1.4 0.2-0.6 0.3-1.2 0.2-0.6 0.3-1.3 0.2-0.6 0.4-1.2 0.2-0.6 0.4-1.2 0.2-0.6 0.5-1.3 0.2-0.6 0.5-1.2 0.3-0.6 0.6-1.2 0.3-0.6 0.7-1.2 0.3-0.6 0.6-1.1 0.4-0.6 0.7-1.1 0.4-0.5 0.8-1 0.4-0.5 0.9-0.9 1-1.2 2.2-2.2 1.3-0.9 2.7-1.6 1.4-0.7 2.9-1.1 1.6-0.3 3.1-0.4h0.1q0.3-0.5 0.8-1 0.4-0.5 1-0.9 0.5-0.4 1.1-0.6 0.6-0.3 1.3-0.4c0.2-1 0.9-2 1.7-2.7 0.9-0.6 2-1 3-1 1.1 0 2.2 0.4 3.1 1 0.8 0.7 1.5 1.7 1.7 2.7q0.7 0.1 1.3 0.4 0.6 0.2 1.1 0.6 0.6 0.4 1 0.9 0.5 0.5 0.8 1h0.1q1.5 0.1 3 0.4 1.6 0.4 3 1.1 1.4 0.7 2.6 1.6 1.3 1 2.3 2.2 0.4 0.4 0.8 0.9 0.4 0.5 0.8 1 0.4 0.5 0.7 1.1 0.4 0.5 0.7 1.1 0.3 0.6 0.6 1.2 0.3 0.6 0.6 1.2 0.3 0.6 0.6 1.2 0.2 0.7 0.4 1.3 0.2 0.6 0.4 1.2 0.2 0.6 0.4 1.2 0.2 0.6 0.3 1.3 0.2 0.6 0.3 1.2 0.2 0.7 0.3 1.4 0.1 0.7 0.2 1.4 0.1 0.6 0.2 1.3 0.1 0.7 0.2 1.4c2.3 22.6-7.9 50.4-26.2 54.7zm-2.5-85q-0.7 0.2-1.2 0.6-0.5 0.4-0.9 0.9-0.4 0.5-0.6 1.1 0.6 0.1 1.2 0.3 0.6 0.2 1.1 0.5 0.5 0.3 0.9 0.8 0.4 0.4 0.7 0.9 0 0 0 0 0 0.1 0 0.1 0 0 0 0 0 0 0 0 0.1 0 0.1 0 0 0 0 0 0-0.1 0-0.1 0 0 0 0 0.3-0.5 0.7-0.9 0.4-0.5 0.9-0.8 0.5-0.3 1.1-0.5 0.6-0.2 1.2-0.3-0.2-0.6-0.6-1.1-0.4-0.5-0.9-0.9-0.5-0.4-1.2-0.6-0.6-0.2-1.3-0.1-0.6-0.1-1.2 0.1zm-2.2 3.5q-0.9-0.1-1.8 0.1-0.8 0.2-1.5 0.8-0.7 0.5-1.2 1.3 0.3 0.1 0.5 0.1 0.2 0.1 0.4 0.1 0.2 0.1 0.4 0.1 0.3 0.1 0.5 0.2 0.3 0.1 0.6 0.2 0.3 0.1 0.6 0.3 0.3 0.2 0.6 0.4 0.3 0.2 0.5 0.4 0.7 0.6 1.2 1.3 0.5 0.7 0.9 1.5 0.4 0.8 0.6 1.6 0.3 0.8 0.3 1.7c0.7 7.3-7.7 6.1-8.1 6.1-1.1 0-1.9-1.7-1.9-4 0-2.3 0.8-4 1.9-4 0.7 0 1.8 0.6 1.9 2.6 0.1 1.4-0.6 3.3-1.5 3.4-0.5 0.1-0.9-0.9-1-1.6-0.2-0.7-0.1-1.8 0.5-2q0.1 0 0.2 0 0.1 0 0.1 0.1 0.1 0 0.1 0.1 0.1 0 0.1 0.1-0.1 0.2-0.2 0.3 0 0.2-0.1 0.4 0 0.1-0.1 0.3 0 0.2 0 0.3c0 1.3 1.3 0.7 1.1-1.3-0.1-1.8-1.1-1.7-1.1-1.7-0.5 0-1.2 1-1.2 3 0 1.8 0.8 3.7 2.4 2.7 1.4-1 1.9-3.3 1.5-5-0.1-0.8-0.8-3-3.1-3-3.3 0-6.3 1.7-8.7 4.9 0.3 0.8 1.9 4.1 7.3 7.2l0.3 0.1q0.5-0.2 1.1-0.4 0.6-0.2 1.3-0.3 0.6-0.2 1.2-0.2 0.7-0.1 1.3-0.1 0.6 0.1 1.2 0.1 0.5 0.1 1.1 0.2 0.6 0.1 1.2 0.2 0.6 0.1 1.1 0.3 0.1 0 0.3 0 0.1 0.1 0.2 0.1 0.1 0 0.2 0 0.1 0 0.2 0 0.2 0 0.3 0 0.1 0 0.2 0 0.1 0 0.2-0.1 0.2 0 0.3 0 0.5-0.2 1.1-0.3 0.6-0.1 1.2-0.2 0.6-0.1 1.1-0.2 0.6 0 1.2-0.1 0.6 0 1.3 0.1 0.6 0 1.2 0.2 0.7 0.1 1.3 0.3 0.6 0.2 1.1 0.4l0.3-0.1c5.4-3.1 7-6.4 7.3-7.2-2.4-3.2-5.5-4.9-8.7-4.9-2.3 0-3 2.2-3.1 3-0.4 1.7 0.1 4 1.5 5 1.6 1 2.4-0.9 2.4-2.7 0-2-0.7-3-1.2-3-0.1 0-1-0.1-1.1 1.7-0.1 2 1.1 2.6 1.1 1.3q0-0.1 0-0.3-0.1-0.2-0.1-0.3-0.1-0.2-0.1-0.4-0.1-0.1-0.2-0.3 0 0 0.1-0.1 0-0.1 0.1-0.1 0 0 0.1-0.1 0.1 0 0.2 0c0.6 0.2 0.7 1.2 0.5 2-0.1 0.9-0.5 1.7-1 1.6-0.9-0.1-1.6-2-1.5-3.5 0.1-2 1.3-2.5 1.9-2.5 1.1 0 1.9 1.7 1.9 4 0 2.2-0.8 4-1.9 4-0.4 0-8.8 1.1-8.1-6.2q0-0.8 0.3-1.7 0.2-0.8 0.6-1.6 0.4-0.8 0.9-1.5 0.5-0.7 1.2-1.3 0.2-0.2 0.5-0.4 0.3-0.2 0.6-0.4 0.3-0.1 0.6-0.3 0.3-0.1 0.6-0.2 0.2-0.1 0.5-0.1 0.2-0.1 0.4-0.1 0.2-0.1 0.4-0.1 0.2-0.1 0.4-0.1-0.4-0.8-1.1-1.3-0.7-0.6-1.5-0.8-0.9-0.3-1.8-0.1-0.8 0.1-1.6 0.6-0.3 0.2-0.5 0.4-0.3 0.2-0.5 0.5-0.2 0.3-0.3 0.6-0.2 0.3-0.3 0.6 0 0.1 0 0.2 0 0-0.1 0.1 0 0 0 0.1-0.1 0-0.2 0 0 0-0.1 0 0-0.1 0-0.1-0.1-0.1-0.1-0.1 0-0.1 0-0.1-0.1-0.4-0.3-0.7-0.1-0.3-0.3-0.5-0.2-0.3-0.5-0.5-0.2-0.3-0.5-0.4-0.8-0.5-1.6-0.7zm0.7 80q0.1 0 0.2 0 0.2 0.1 0.3 0.1 0.1 0 0.2 0-0.1-0.3-0.3-0.7-0.1-0.3-0.2-0.7-0.1-0.4-0.1-0.8-0.1-0.4-0.1-0.8-0.2-0.1-0.5-0.2-0.3-0.1-0.6-0.2-0.3-0.1-0.5-0.3-0.3-0.1-0.6-0.3-1.2-0.6-2.3-1.4-1.1-0.7-2.1-1.6-1-0.9-1.9-1.8-1-1-1.8-2.1-0.8-1-1.6-2.1-0.7-1.1-1.4-2.2-0.7-1.2-1.3-2.3-0.6-1.2-1.2-2.4-0.5-1.2-1-2.4-0.5-1.2-1-2.4-0.4-1.3-0.8-2.5-0.4-1.3-0.7-2.5-0.4-1.3-0.7-2.7-0.2-1.3-0.5-2.6-0.2-1.3-0.4-2.7-0.2-1.3-0.4-2.6-0.1-1.4-0.2-2.7-0.1-1.3-0.1-2.6 0-1.4 0-2.7 0-1.3 0.1-2.7 0.1-1.4 0.3-2.9 0.2-1.4 0.4-2.8 0.3-1.5 0.7-2.9 0.4-1.4 0.8-2.8 0.4-1 0.8-2.1 0.5-1 1-2 0.6-1 1.2-2 0.7-0.9 1.4-1.8 0.8-0.9 1.7-1.6 0.9-0.7 2-1.2 1-0.5 2.1-0.8 1.2-0.2 2.3-0.3c2.1 0 3.6 1.6 4 3.7q0.2 0.7 0.2 1.3 0 0.7-0.1 1.4-0.2 0.6-0.4 1.2-0.3 0.7-0.7 1.2c-0.4 0.5-0.3 0.6-0.2 0.6 0.9 0 5.5-0.7 5.1-5.2q0-0.9-0.3-1.8-0.3-0.8-0.7-1.6-0.4-0.8-1-1.4-0.6-0.7-1.3-1.2-0.5-0.3-0.9-0.5-0.5-0.2-1-0.3-0.5-0.1-1-0.2-0.5 0-1 0-0.3 0-0.7 0-0.3 0-0.6 0-0.3 0.1-0.6 0.1-0.4 0-0.7 0.1-0.1 0-0.2 0-0.1 0.1-0.3 0.1-0.1 0-0.2 0.1-0.1 0-0.3 0-0.5 0.2-1 0.4-0.2 0.1-0.5 0.2-0.2 0.1-0.5 0.2-0.2 0.1-0.4 0.2-0.3 0.1-0.5 0.2-0.6 0.3-1.1 0.7-0.5 0.3-1 0.7-0.5 0.4-1 0.8-0.5 0.5-0.9 0.9-0.5 0.5-0.9 1.1-0.4 0.5-0.8 1.1-0.4 0.5-0.8 1.1-0.3 0.6-0.7 1.2-0.3 0.6-0.6 1.2-0.2 0.6-0.5 1.2-0.3 0.6-0.5 1.2-0.2 0.6-0.5 1.2-0.2 0.7-0.4 1.4-0.2 0.7-0.4 1.4-0.1 0.7-0.3 1.4-0.1 0.7-0.3 1.4c-0.3 1.9-0.6 3.9-0.7 5.8q-0.1 1.3-0.2 2.7 0 1.4 0 2.7 0 1.4 0.1 2.7 0 1.4 0.2 2.7 0.1 1.4 0.2 2.8 0.2 1.3 0.4 2.7 0.3 1.3 0.5 2.7 0.3 1.3 0.6 2.6 0.4 1.4 0.7 2.7 0.4 1.3 0.8 2.5 0.4 1.3 0.9 2.6 0.5 1.2 1 2.5 0.6 1.3 1.2 2.5 0.6 1.3 1.3 2.5 0.7 1.2 1.5 2.4 0.8 1.1 1.6 2.3 0.7 0.9 1.5 1.8 0.3 0.3 0.5 0.6 0.3 0.3 0.6 0.6 0.3 0.4 0.6 0.7 0.3 0.3 0.6 0.6 0.4 0.3 0.8 0.7 0.4 0.3 0.8 0.6 0.4 0.3 0.8 0.7 0.4 0.3 0.9 0.6 0.7 0.4 1.4 0.9 0.7 0.4 1.4 0.7 0.7 0.4 1.5 0.7 0.8 0.3 1.5 0.6 0.2 0 0.3 0.1zm-19.3-50.2q0.7 0.2 1.4 0.5 0.8 0.2 1.5 0.3 0.8 0.1 1.5 0.2c0.6-3.8 2.5-8.9 6.6-11.4-4.8-2.8-6.9-5.9-7.4-7.1-2.7 3.8-4.6 9.5-5 16.8q0.7 0.4 1.4 0.7zm9.3 30.7q-0.6 0.4-1.3 0.7-0.6 0.2-1.3 0.5-0.7 0.2-1.4 0.3c2.7 5.1 6.1 9.4 10.1 12.1q0.5-0.4 1-0.9 0.6-0.5 1-1 0.5-0.6 0.8-1.2 0.4-0.6 0.7-1.2c-2.3-1.7-5.4-4.8-8.4-10.1q-0.6 0.4-1.2 0.8zm9.4 10.9q-0.4 0.6-0.8 1.1-0.5 0.6-1 1.1-0.5 0.4-1 0.9 0.4 0.2 0.8 0.5 0.5 0.2 0.9 0.5 0.5 0.2 0.9 0.4 0.5 0.2 1 0.4c0-0.1 0-0.2 0-0.2 0.2-1.3 2-1.6 2.6-1.6 0.6 0 2.3 0.3 2.6 1.6 0 0.1-0.3 0.3 0 0.2q0.4-0.2 0.9-0.4 0.5-0.2 0.9-0.4 0.5-0.3 0.9-0.5 0.4-0.3 0.9-0.5-0.6-0.4-1.1-0.9-0.5-0.5-1-1.1-0.4-0.5-0.8-1.1-0.4-0.6-0.7-1.3-0.3 0.3-0.6 0.5-0.3 0.2-0.7 0.4-0.3 0.1-0.6 0.3-0.4 0.2-0.8 0.3-0.3-0.1-0.7-0.3-0.3-0.2-0.6-0.3-0.4-0.2-0.7-0.4-0.3-0.2-0.6-0.5-0.3 0.7-0.7 1.3zm30.2-34.8q0.1-1.3 0.1-2.7 0-1.3 0-2.7-0.1-1.3-0.2-2.7-0.2-2.9-0.8-5.8-0.1-0.7-0.2-1.4-0.2-0.7-0.3-1.4-0.2-0.7-0.4-1.4-0.2-0.7-0.5-1.4-0.2-0.6-0.4-1.2-0.3-0.6-0.5-1.2-0.3-0.6-0.6-1.2-0.3-0.6-0.6-1.2-0.4-0.6-0.7-1.1-0.4-0.6-0.8-1.2-0.4-0.5-0.8-1.1-0.4-0.5-0.9-1-0.4-0.5-0.9-0.9-0.5-0.4-1-0.8-0.5-0.4-1-0.7-0.5-0.4-1.1-0.7-0.2-0.1-0.5-0.2-0.2-0.2-0.4-0.3-0.3-0.1-0.5-0.2-0.3-0.1-0.5-0.2-0.5-0.1-1-0.3-0.2 0-0.3-0.1-0.1 0-0.2 0-0.2-0.1-0.3-0.1-0.1 0-0.2 0-0.3-0.1-0.7-0.1-0.3-0.1-0.6-0.1-0.3 0-0.6 0-0.4-0.1-0.7-0.1-0.5 0-1 0.1-0.5 0.1-1 0.2-0.5 0.1-1 0.3-0.4 0.2-0.9 0.5-0.7 0.5-1.3 1.1-0.6 0.7-1 1.5-0.4 0.8-0.7 1.6-0.3 0.9-0.3 1.7c-0.4 4.6 4.2 5.3 5.1 5.3 0.1 0 0.2-0.2-0.2-0.6q-0.4-0.6-0.7-1.2-0.2-0.6-0.4-1.3-0.1-0.6-0.1-1.3 0-0.7 0.2-1.3c0.4-2.1 1.8-3.7 4-3.7q1.1 0 2.3 0.3 1.1 0.3 2.1 0.8 1.1 0.5 2 1.2 0.9 0.7 1.7 1.6 0.7 0.8 1.4 1.8 0.6 0.9 1.2 1.9 0.6 1 1 2 0.5 1.1 0.8 2.2 0.5 1.3 0.9 2.7 0.4 1.4 0.7 2.9 0.2 1.4 0.4 2.8 0.2 1.5 0.3 2.9 0.1 1.4 0.1 2.7 0 1.3 0 2.7 0 1.3-0.1 2.6-0.1 1.3-0.3 2.7-0.1 1.3-0.3 2.6-0.2 1.4-0.4 2.7-0.3 1.3-0.6 2.6-0.3 1.3-0.6 2.6-0.4 1.3-0.8 2.5-0.3 1.3-0.8 2.5-0.4 1.3-0.9 2.5-0.5 1.2-1.1 2.4-0.5 1.2-1.1 2.3-0.6 1.2-1.3 2.3-0.7 1.2-1.5 2.2-0.7 1.1-1.5 2.2-0.9 1-1.8 2-0.9 1-1.9 1.8-1.1 0.9-2.2 1.6-1.1 0.8-2.3 1.4-0.2 0.2-0.5 0.3-0.3 0.2-0.6 0.3-0.2 0.1-0.5 0.2-0.3 0.1-0.6 0.2 0 0.4 0 0.8 0 0.4-0.1 0.8-0.1 0.4-0.2 0.8-0.2 0.4-0.4 0.7 0.2 0 0.3 0 0.1 0 0.3-0.1 0.1 0 0.2 0 0.1-0.1 0.2-0.1 0.8-0.3 1.6-0.6 0.7-0.3 1.5-0.7 0.7-0.4 1.4-0.8 0.7-0.4 1.4-0.9 0.4-0.3 0.8-0.6 0.5-0.3 0.9-0.6 0.4-0.3 0.8-0.7 0.4-0.3 0.7-0.7 0.4-0.3 0.7-0.6 0.3-0.3 0.6-0.6 0.3-0.3 0.5-0.6 0.3-0.3 0.6-0.7 0.8-0.8 1.5-1.8 0.8-1.1 1.6-2.3 0.7-1.1 1.4-2.4 0.7-1.2 1.4-2.4 0.6-1.3 1.1-2.6 0.6-1.2 1.1-2.5 0.4-1.2 0.9-2.5 0.4-1.3 0.8-2.6 0.3-1.3 0.7-2.6 0.3-1.3 0.6-2.6 0.2-1.4 0.5-2.7 0.2-1.4 0.4-2.7 0.1-1.4 0.3-2.8 0.1-1.3 0.1-2.7zm-15 22.6q0 0 0 0 0 0 0 0zm0 0q0.6 0.4 1.2 0.8 0.6 0.4 1.2 0.7 0.7 0.3 1.4 0.5 0.6 0.2 1.3 0.3 1.8-3.7 3.1-7.6 1.3-3.9 2.1-7.9 0.8-4 1.2-8.1 0.3-4.1 0.1-8.2-0.7 0.3-1.4 0.6-0.7 0.3-1.4 0.5-0.7 0.2-1.5 0.3-0.7 0.1-1.5 0.2 0.1 0.4 0.1 0.8 0.1 0.4 0.1 0.9 0.1 0.4 0.1 0.8 0 0.4 0 0.8 0.1 1 0.1 2 0 1 0 2-0.1 1-0.2 2-0.1 0.9-0.2 1.9-0.1 1-0.3 1.9-0.2 0.9-0.4 1.8-0.2 0.9-0.4 1.8-0.3 1-0.6 1.9-0.3 1.2-0.8 2.4-0.5 1.2-1 2.3-0.5 1.2-1.1 2.3-0.5 1.2-1.2 2.3zm5.8-28.4q0.7-0.1 1.5-0.2 0.7-0.2 1.5-0.4 0.7-0.2 1.4-0.5 0.7-0.2 1.4-0.6c-0.5-7.3-2.3-13-5-16.9-0.5 1.3-2.6 4.4-7.4 7.2 4.1 2.6 6 7.6 6.6 11.4zm-36.9 0.3q-0.7-0.1-1.4-0.3-0.7-0.2-1.4-0.5-0.7-0.3-1.4-0.6-0.2 4.1 0.1 8.2 0.3 4.1 1.1 8.1 0.9 4 2.2 7.9 1.3 3.9 3.1 7.6 0.7-0.1 1.3-0.3 0.7-0.2 1.4-0.5 0.6-0.3 1.2-0.7 0.6-0.4 1.2-0.8-0.7-1.1-1.2-2.2-0.6-1.2-1.1-2.4-0.5-1.1-1-2.3-0.5-1.2-0.8-2.4-0.6-1.9-1-3.8-0.5-1.8-0.7-3.8-0.3-1.9-0.4-3.8 0-1.9 0.1-3.9 0-0.4 0-0.8 0-0.4 0-0.8 0.1-0.4 0.1-0.9 0.1-0.4 0.1-0.8-0.7 0-1.5-0.2zm19.6 50.3q0.4-0.5 0.7-1.1 0.4-0.6 0.6-1.3 0.2-0.6 0.2-1.3 0.1-0.7-0.1-1.4c-0.1-0.7-1.1-1-1.8-1-0.6 0-1.7 0.3-1.8 1q-0.1 0.7 0 1.4 0 0.7 0.2 1.3 0.2 0.7 0.5 1.3 0.4 0.6 0.8 1.1 0 0.1 0.1 0.1 0 0.1 0.1 0.1 0 0 0 0 0.1 0 0.1 0.1 0.1-0.1 0.1-0.1 0.1 0 0.1 0 0 0 0.1-0.1 0 0 0-0.1zm2.9-11.6q0 0 0 0 0 0 0 0zm0 0q0.3 0.6 0.6 1.2 0.4 0.6 0.9 1.2 0.4 0.5 0.9 1 0.5 0.5 1.1 0.9c4-2.7 7.4-7 10.1-12.1q-0.7-0.1-1.4-0.3-0.7-0.2-1.3-0.5-0.7-0.3-1.3-0.7-0.6-0.4-1.2-0.8c-3.1 5.3-6.1 8.4-8.4 10.1z"/>
	<path id="Layer" class="s2" d="m60.8 39.3c-0.2-2.7-0.9-10.9-6.5-14.5q-0.5-0.3-1.1-0.5-0.5-0.2-1-0.3-0.6-0.2-1.1-0.3-0.6 0-1.2-0.1c-2.7-0.1-4.7 0.9-6.1 1-1.4 0-3.5-1.1-6.2-1q-0.6 0.1-1.2 0.1-0.5 0.1-1.1 0.3-0.5 0.1-1.1 0.3-0.5 0.3-1 0.6c-5.6 3.5-6.4 11.7-6.4 14.4q-0.1 2.4 0 4.8 0.2 2.5 0.7 4.9 0.4 2.4 1.1 4.7 0.7 2.3 1.7 4.6c3.8 8.5 8.5 14.5 13.1 16.5l0.4 0.2 0.3-0.2c4.6-2 9.3-8 13.2-16.5q0.9-2.3 1.6-4.6 0.7-2.3 1.2-4.7 0.4-2.4 0.6-4.9 0.2-2.4 0.1-4.8z"/>
	<path id="Layer" class="s3" d="m52 32.8v1.8h0.4 0.2q0.1 0 0.2 0 0.1 0.1 0.2 0.1 0.1 0 0.2 0.1 0.1 0 0.2 0.1 0.1 0.1 0.2 0.3 0 0.1 0.1 0.3 0 0.1 0 0.2 0 0.2-0.1 0.3c0 0.1-3.7 16.2-4.4 19.3-0.8-3.9-5.3-25.2-5.3-25.2v-0.1h-0.9v0.1l-3.9 24.9-4.3-19q-0.1 0-0.1-0.1 0 0 0 0 0-0.1 0-0.1 0 0 0-0.1 0-0.1 0-0.2 0.1-0.2 0.1-0.3 0-0.1 0.1-0.3 0.1-0.1 0.2-0.2 0 0 0.1-0.1 0.1 0 0.2 0 0.1 0 0.2 0 0.1-0.1 0.1 0h0.4v-1.8h-6.2v1.7h0.3q0.1 0 0.3 0.1 0.1 0.1 0.3 0.2 0.1 0.1 0.2 0.2 0.1 0.2 0.1 0.4l7.7 32.7-0.1 0.1h1.2v-0.1l3.5-23.3 4.5 23.3v0.1h1l7.3-32.8q0-0.1 0.1-0.3 0.1-0.1 0.3-0.2 0.1-0.1 0.3-0.2 0.1 0 0.3 0h0.1 0.3v-1.9z"/>
</svg>