<svg version="1.2" xmlns="http://www.w3.org/2000/svg" viewBox="0 0 420 356" width="420" height="356"><style>.a{fill:#999899}.b{fill:#fefefe}.c{fill:#ec1c24}.d{fill:#0066b2}</style><path class="a" d="m202 142.7c7.4 0 14.6 0.7 21.4 1.9l16.3-16.9c-11.4-4-24.2-6.2-37.7-6.2-23 0-43.9 6.4-59.3 16.8l14.2 13.5c13.1-5.7 28.6-9.1 45.1-9.1z"/><path class="b" d="m202 121.5c13.5 0 26.3 2.2 37.7 6.2l17.8-18.5c-16.6-6.5-35.4-10.2-55.5-10.2-29.9 0-57.1 8.2-77.9 21.7l18.6 17.6c15.4-10.4 36.3-16.8 59.3-16.8z"/><path class="a" d="m116.9 193.7c1.5-6.1 4.3-11.9 8.1-17.2l-7.2-7.2c-1.4 4.4-2.2 9-2.2 13.8q0 5.4 1.3 10.6z"/><path class="a" d="m64.2 233.6l-3 15.6 29.8-12.9c-1.9-3.9-2.3-9.1-3.4-13.3z"/><path class="a" d="m43.2 64.6l-43.2 236.4 20.4 1.7 42.8-239.9z"/><path class="c" d="m188.3 200.6v-19.1l-31.3-29.7-14.2-13.5-18.6-17.6-61.1-57.9-42.8 239.9 90.5-39.8c-9-8-15.4-16.5-20.1-26.4l-29.5 12.6 3-15.5 19.1-99.4 1.5-8.4 15.8 15.9 20.3 20.4 8.7 8.8 35.8 30.8-34.8 15.9c9.1 9 19.7 17 34.1 21.5l43.4-19.5z"/><path class="a" d="m287.1 193.7c0.9-3.5 1.3-7 1.3-10.6 0-10.7-3.9-20.8-10.6-29.5l-10.3 10.6c9.9 8.3 16.9 18.4 19.6 29.5z"/><path class="a" d="m306.5 294.9l-24.4-23.5c-3.9 2.7-8.1 5.2-12.5 7.4l36.9 35.4 113.5-118.3-0.1-19.1z"/><path class="a" d="m223.7 215.4l-20.1-19.2-15.3-14.7-0.1 19.1 21.6 20.8 20.7 19.8c5.2-1.3 10.2-2.9 15-4.9z"/><path class="a" d="m302.7 108.5l-16.2 16.8-17.8 18.6-12.2 12.6-23 24 9.6 9.3 24.5-25.5 10.3-10.7 18.8-19.5 6-6.3 62.4 59.9 9.7-10.1z"/><path class="b" d="m296.7 134.1l-18.8 19.5c6.7 8.8 10.5 18.8 10.5 29.5 0 3.6-0.4 7.1-1.3 10.6-2.2 9-7.1 17.3-14.1 24.5-7.2 7.4-16.6 13.6-27.5 18.1-4.8 2-9.8 3.6-15 4.9-8.9 2.2-18.5 3.5-28.5 3.5-12.3 0-23.9-1.9-34.5-5.2-14.4-4.5-26.8-11.7-35.8-20.7-3.3-3.3-6.2-6.8-8.5-10.5-2.9-4.6-5-9.5-6.3-14.6q-1.3-5.2-1.3-10.6c0-4.8 0.8-9.4 2.2-13.8l-21.5-21.9c-7.9 11.7-12.4 24.9-12.4 38.9 0 3.6 0.3 7.1 0.9 10.6 1.4 8.5 4.4 16.5 8.8 24.1q3.3 5.6 7.7 10.9c7.6 9.1 17.3 17.1 28.8 23.7 19.9 11.3 44.8 18 71.9 18 19 0 36.8-3.3 52.7-9.1q7.2-2.7 13.8-6c10.3-5.2 19.3-11.5 26.9-18.8 12.7-12.1 21.2-26.8 23.8-42.8 0.6-3.5 0.9-7 0.9-10.6 0-19.6-8.7-37.7-23.4-52.2z"/><path class="d" d="m223.6 215.6l21.7 20.8c10.9-4.6 20.4-10.7 27.6-18.1l-29.7-28.5-9.7-9.2 22.9-23.9 12.2-12.7 17.8-18.5 16.2-16.9 71.9 69.1-9.7 10-58.9 61.4c-6.2 8.5-14.2 16-23.8 22.6l24.3 23.3 113.5-118.2-118.3-113.6-44.2 46.2-17.8 18.4-16.3 17-35 36.7z"/><path class="d" d=""/><path class="a" d="m123.7 208.9c0 0 0.6 0.9 0.6 1 1.7 2.8 4.1 5.3 6.4 7.8l35.3-16.3-81.2-75.6-2.2 11.7 63.7 63z"/><path class="a" d="m320.1 186.3c0 3.6-0.3 7.1-0.9 10.6-2.6 16-11.1 30.7-23.8 42.8-7.6 7.3-16.6 13.6-26.9 18.8q-6.6 3.3-13.8 6c-15.9 5.8-33.7 9.1-52.7 9.1-27.1 0-52-6.7-71.9-18-11.5-6.6-21.2-14.6-28.8-23.7q-4.4-5.3-7.7-10.9c-4.4-7.6-7.4-15.6-8.8-24.1-0.6-3.5-0.9-7-0.9-10.6 0-1.1 0.1-2.2 0.1-3.3 0-0.1 0-0.2 0-0.2-0.6 3.4-0.1 21.2-0.1 24.7 0 5.7 0.8 11.3 2.2 16.7q1.6 6.3 4.5 12.3c4.7 9.9 11.8 19.1 20.8 27.1 21.7 19.1 54.2 31.3 90.6 31.3 25.3 0 48.6-5.9 67.8-15.9q6.6-3.4 12.4-7.4c9.6-6.5 17.6-14.1 23.8-22.7 9-12.3 14.1-26.4 14.1-41.4 0-3.1 0.3-18.1 0-24.1-0.1-0.8 0 1.9 0 2.9z"/><path class="a" d="m319.7 307.4h-2.2v-0.8h5.4v0.8h-2.2v6.6h-1z"/><path class="a" d="m329.8 310.8c-0.1-1.1-0.1-2.3-0.1-3.2h-0.1q-0.3 1.3-0.9 2.8l-1.3 3.6h-0.7l-1.2-3.6q-0.6-1.5-0.9-2.8c0 0.9-0.1 2.1-0.1 3.2l-0.2 3.2h-0.9l0.5-7.4h1.2l1.2 3.6q0.5 1.3 0.8 2.5 0.3-1.1 0.8-2.5l1.3-3.6h1.2l0.5 7.4h-0.9z"/></svg>