<svg version="1.2" xmlns="http://www.w3.org/2000/svg" viewBox="0 0 519 519" width="519" height="519">
	<title>FIRSTicon_CMYK_withTM-ai</title>
	<style>
		.s0 { fill: #999899 } 
		.s1 { fill: #fefefe } 
		.s2 { fill: #ec1c24 } 
		.s3 { fill: #0066b2 } 
	</style>
	<g id="Layer 2">
		<g id="&lt;Group&gt;">
			<path id="&lt;Path&gt;" class="s0" d="m255.5 229.6c8.8 0 17.2 0.8 25.3 2.2l19.2-20c-13.4-4.7-28.5-7.3-44.5-7.3-27.1 0-51.7 7.6-70 19.9l16.8 15.9c15.5-6.8 33.7-10.7 53.2-10.7z"/>
			<path id="&lt;Path&gt;" class="s1" d="m255.5 204.5c16 0 31.1 2.6 44.5 7.3l20.9-21.8c-19.5-7.7-41.7-12-65.4-12-35.2 0-67.4 9.7-91.9 25.6l21.9 20.8c18.3-12.3 42.9-19.9 70-19.9z"/>
			<path id="&lt;Path&gt;" class="s0" d="m155.1 289.7c1.8-7.2 5-14 9.5-20.3l-8.4-8.5c-1.7 5.2-2.6 10.7-2.6 16.3 0 4.3 0.5 8.4 1.5 12.5z"/>
			<path id="&lt;Path&gt;" class="s0" d="m92.9 336.8l-3.5 18.3 35.1-15.1c-2.2-4.7-2.6-10.8-3.9-15.7z"/>
			<path id="&lt;Path&gt;" class="s0" d="m68.1 137.4l-50.9 278.9 24.1 2 50.4-283z"/>
			<path id="&lt;Path&gt;" class="s2" d="m239.4 297.9v-22.6l-37-35-16.8-15.9-21.9-20.8-72.1-68.3-50.4 283 106.7-47c-10.6-9.4-18.1-19.4-23.7-31.2l-34.8 15 3.5-18.3 22.5-117.3 1.9-9.9 18.6 18.7 23.9 24.1 10.3 10.4 42.2 36.3-41 18.8c10.7 10.7 23.3 20 40.3 25.3l51.1-22.9z"/>
			<path id="&lt;Path&gt;" class="s0" d="m355.9 289.7c1-4.1 1.6-8.2 1.6-12.5 0-12.6-4.6-24.5-12.6-34.8l-12.1 12.5c11.7 9.7 19.9 21.7 23.1 34.8z"/>
			<path id="&lt;Path&gt;" class="s0" d="m378.7 409.1l-28.7-27.7c-4.6 3.2-9.5 6.1-14.7 8.7l43.4 41.8 134-139.6-0.1-22.6z"/>
			<path id="&lt;Path&gt;" class="s0" d="m281.1 315.4l-23.7-22.8-18.1-17.3-0.1 22.6 25.5 24.5 24.4 23.4c6.2-1.6 12.1-3.5 17.7-5.8z"/>
			<path id="&lt;Path&gt;" class="s0" d="m374.3 189.2l-19.1 19.8-21 22-14.4 14.9-27.1 28.3 11.3 10.9 29-30.1 12-12.6 22.2-23 7.1-7.4 73.6 70.6 11.4-11.8z"/>
			<path id="&lt;Path&gt;" class="s1" d="m367.2 219.4l-22.2 23c8 10.3 12.5 22.2 12.5 34.8 0 4.3-0.6 8.4-1.6 12.5-2.6 10.6-8.4 20.4-16.7 28.9-8.4 8.7-19.5 16-32.4 21.4-5.6 2.3-11.5 4.2-17.7 5.8-10.5 2.6-21.8 4-33.6 4-14.5 0-28.2-2.1-40.7-6-17-5.3-31.6-13.8-42.2-24.4-3.9-3.9-7.3-8.1-10.1-12.5-3.4-5.4-5.9-11.2-7.4-17.2-1-4.1-1.5-8.2-1.5-12.5 0-5.6 0.9-11.1 2.6-16.3l-25.4-25.8c-9.4 13.8-14.6 29.4-14.6 45.9 0 4.2 0.4 8.4 1.1 12.5 1.6 10 5.2 19.5 10.4 28.4q3.9 6.7 9 12.8c8.9 10.8 20.5 20.3 34 28 23.5 13.4 52.9 21.3 84.8 21.3 22.4 0 43.5-3.9 62.2-10.8q8.5-3.1 16.3-7.1c12.1-6.1 22.8-13.5 31.7-22.1 15-14.3 25-31.6 28.1-50.5 0.7-4.1 1.1-8.3 1.1-12.5 0-23.1-10.3-44.5-27.7-61.6z"/>
			<path id="&lt;Path&gt;" class="s3" d="m281 315.5l25.6 24.6c12.9-5.4 24-12.6 32.5-21.3l-35-33.7-11.4-10.9 27-28.1 14.4-15 21-21.9 19.1-19.8 84.8 81.4-11.4 11.9-69.5 72.4c-7.3 10-16.8 18.9-28 26.6l28.5 27.5 134-139.5-139.5-133.9-52.3 54.4-20.9 21.8-19.2 20-41.4 43.3z"/>
			<path id="&lt;Path&gt;" class="s3" d=""/>
			<g id="&lt;Group&gt;">
				<path id="&lt;Path&gt;" class="s0" d="m163.1 307.6c0 0 0.7 1.1 0.8 1.2 2 3.3 4.8 6.3 7.5 9.2l41.7-19.2-95.8-89.2-2.6 13.8 75.1 74.4z"/>
			</g>
			<path id="&lt;Path&gt;" class="s0" d="m394.9 281c0 4.2-0.4 8.4-1.1 12.5-3.1 18.9-13.1 36.2-28.1 50.5-8.9 8.6-19.6 16-31.7 22.1q-7.8 4-16.3 7.1c-18.7 6.9-39.8 10.8-62.2 10.8-31.9 0-61.3-7.9-84.8-21.3-13.5-7.7-25.1-17.2-34-28q-5.1-6.1-9-12.8c-5.2-8.9-8.8-18.4-10.4-28.4-0.7-4.1-1.1-8.3-1.1-12.5 0-1.3 0.1-2.7 0.2-4-0.1 0-0.1-0.1-0.1-0.2-0.7 4.1-0.1 25-0.1 29.2 0 6.8 0.9 13.3 2.5 19.7q2 7.4 5.3 14.4c5.6 11.8 14 22.6 24.7 32 25.5 22.6 63.9 37 106.8 37 29.8 0 57.4-7 80-18.7q7.8-4.1 14.7-8.8c11.2-7.7 20.7-16.7 28-26.7 10.6-14.5 16.7-31.2 16.7-48.9 0-3.7 0.3-21.4-0.1-28.4 0-0.9 0.1 2.2 0.1 3.4z"/>
		</g>
		<g id="&lt;Group&gt;">
			<path id="&lt;Compound Path&gt;" class="s0" d="m394.4 423.9h-2.7v-1h6.5v1h-2.7v7.7h-1.1z"/>
			<path id="&lt;Compound Path&gt;" class="s0" d="m406.2 427.8c0-1.2-0.1-2.7-0.1-3.7q-0.5 1.5-1.1 3.3l-1.6 4.2h-0.8l-1.4-4.2q-0.6-1.8-1-3.3h-0.1c0 1 0 2.5-0.1 3.8l-0.2 3.7h-1.1l0.6-8.7h1.4l1.5 4.2c0.4 1.1 0.7 2.1 0.9 3q0.4-1.3 0.9-3l1.6-4.2h1.4l0.6 8.7h-1.1z"/>
		</g>
	</g>
</svg>