<svg xmlns="http://www.w3.org/2000/svg" >
  <defs>
    <symbol id="brand" viewBox="0 0 400 400">
	<path fill="currentColor" d="m79.4 129.4h34.7v31.9h22.2v25.4h-22.2v64.7q0 7.2 2.8 10.3 2.7 3.2 10.5 3.2 5.8 0 10.2-0.9v26.3q-10.2 3.1-21 3.1-36.4 0-37.2-36.8v-69.9h-18.9v-25.4h18.9zm142.1 95.8q0-30.4 13.6-48.4 13.6-17.9 37.3-17.9 18.9 0 31.3 14.1v-66.2h34.7v184.2h-31.3l-1.6-13.8q-13 16.2-33.4 16.2-22.9 0-36.8-18-13.8-18.1-13.8-50.2zm34.7 2.5q0 18.2 6.3 27.9 6.4 9.7 18.5 9.7 16.1 0 22.7-13.5v-51.2q-6.5-13.6-22.5-13.6-25 0-25 40.7z"/>
	<path fill="#167bff" d="m157.4 274q0-8.3 5.5-13.5 5.6-5.1 14-5.1 8.5 0 14.1 5.1 5.6 5.2 5.6 13.5 0 8.1-5.5 13.3-5.5 5-14.2 5-8.5 0-14-5-5.5-5.2-5.5-13.3z"/>
    </symbol>
  </defs>
</svg>
