<svg version="1.2" xmlns="http://www.w3.org/2000/svg" viewBox="0 0 566 566" width="1024" height="1024"><style>.a{fill:#fff}.b{fill:#96c93c}</style><path class="a" d="m526.8 282.8c0 134.9-109.4 244.2-244.2 244.2-134.9 0-244.2-109.3-244.2-244.2 0-134.9 109.3-244.2 244.2-244.2 134.8 0 244.2 109.3 244.2 244.2z"/><path fill-rule="evenodd" class="b" d="m544.6 283.3c0 144.4-117.1 261.5-261.5 261.5-144.4 0-261.5-117.1-261.5-261.5 0-144.4 117.1-261.4 261.5-261.4 144.4 0 261.5 117 261.5 261.4zm-28.2 0c0-128.6-104.7-233.3-233.3-233.3-128.6 0-233.3 104.7-233.3 233.3 0 128.6 104.7 233.3 233.3 233.3 128.6 0 233.3-104.7 233.3-233.3z"/><path fill-rule="evenodd" class="b" d="m496.9 283.3c0 117.9-95.9 213.8-213.8 213.8-117.9 0-213.8-95.9-213.8-213.8 0-117.9 95.9-213.8 213.8-213.8 117.9 0 213.8 95.9 213.8 213.8zm-274.5-45.7c-25.3-5.9-47.5-8.9-55.4-9.8v159.9c0 15.3 12.4 27.8 27.7 27.8q1.5 0 2.9 0.1h24.8zm0-79.1h-55.4v54.2c16.1 0.6 35.4 1.6 55.4 3.1 0 0 0-57.2 0-57.3zm226 128.1c0-69.5-55.5-126.3-124.4-128.4l-4.1 0.1h-66.6v60.4c21.5 2.4 42.2 5.7 59.1 10v-15h7.8c40.1 0.2 72.6 32.9 72.6 72.9 0 40.1-32.5 72.8-72.6 73h-7.8v-79.8c-11.8-14.7-34.7-25.6-59.1-33.6v169h66.9c70.7-0.2 128.2-57.8 128.2-128.6z"/></svg>