<svg version="1.2" xmlns="http://www.w3.org/2000/svg" viewBox="0 0 1024 1024" width="1024" height="1024"><style>.a{fill:#1a1916}.b{fill:#e8e5df}</style><path fill-rule="evenodd" class="a" d="m50 0h924c27.6 0 50 22.4 50 50v924c0 27.6-22.4 50-50 50h-924c-27.6 0-50-22.4-50-50v-924c0-27.6 22.4-50 50-50z"/><path class="b" d="m358 695h-81.1q-40.1 0-63.3-22-22.3-22.8-22.3-62.5v-138.8h-76.2v-57.7h76.2v-79.2h63.9v79.2h107.9v57.7h-107.9v138.8q0 26.8 26.2 26.8h76.6zm171.4 5.1q-42.1 0-68.1-28.6-25.3-29.4-25.3-78.9v-76q0-49.4 25.3-78.1 25.7-29.6 68.1-29.6 34.8 0 55 19.9 20.5 19.4 20.5 53.7l-14.3-14.9h14.7l-1.9-66.8v-78.8h63.9v373h-62.4v-53.7h-14.3l14.3-14.9q0 34.6-20.5 54.3-20.2 19.4-55 19.4zm22.5-55.4q24.2 0 37.6-14.1 13.9-14.8 13.9-40.8v-70.7q0-25.9-13.9-40.2-13.4-14.6-37.6-14.6-24.6 0-38.5 14.6-13.5 13.8-13.5 40.2v70.7q0 26.4 13.5 40.8 13.9 14.1 38.5 14.1zm307.4 55.4q-21.8 0-35.3-12.8-12.5-13-12.5-34.6 0-22.3 12.5-34.9 13.5-13.3 35.3-13.3 22.1 0 34.7 13.3 13 12.6 13 34.9 0 21.6-13 34.6-12.6 12.8-34.7 12.8z"/></svg>