<svg version="1.2" xmlns="http://www.w3.org/2000/svg" viewBox="0 0 59 59" width="59" height="59"><style>.a{fill:#fff}.b{fill:#502d17}.c{fill:#794422}.d{fill:#ff7f2b}.e{fill:#d6d6d6}.f{fill:#c2ddeb}</style><path class="a" d="m10.3 53l-0.9-1 5.2-5.2-8.6-8.6 1-0.9 9.5 9.5z"/><path class="a" d="m52 46.1h-36.5v1.4h36.5z"/><path class="b" d="m18.6 4.9q0-0.2 0.1-0.4 0-0.2 0.2-0.3 0.2-0.1 0.4-0.2 0.2 0 0.4 0.1l7.5 2.8-7.5 7.3z"/><path class="b" d="m45.4 4.9q0-0.2-0.1-0.4-0.1-0.2-0.2-0.3-0.2-0.1-0.4-0.2-0.2 0-0.4 0.1l-7.6 2.8 7.6 7.3z"/><path class="c" d="m32.1 45.3c10.1 0 18.3-7.1 18.3-15.8 0-8.6-8.2-15.7-18.3-15.7-10.1 0-18.3 7.1-18.3 15.7 0 8.7 8.2 15.8 18.3 15.8z"/><path class="b" d="m47.2 25.2c0 11.8-6.8 21.3-15.1 21.3-8.4 0-15.1-9.5-15.1-21.3 0-11.7 6.7-21.2 15.1-21.2 8.3 0 15.1 9.5 15.1 21.2z"/><path class="a" d="m26 26.1c3.9 0 7-3.6 7-8.1 0-4.4-3.1-8-7-8-3.9 0-7.1 3.6-7.1 8 0 4.5 3.2 8.1 7.1 8.1z"/><path class="a" d="m42.6 34c0 5.5-4.7 9.9-10.5 9.9-5.8 0-10.5-4.4-10.5-9.9 0-5.4 4.7-9.8 10.5-9.8 5.8 0 10.5 4.4 10.5 9.8z"/><path class="a" d="m45.1 18c0 4.5-3.2 8.1-7.1 8.1-3.8 0-7-3.6-7-8.1 0-4.4 3.2-8 7-8 3.9 0 7.1 3.6 7.1 8z"/><path class="d" d="m31.5 20.8c0.4-0.2 0.8-0.2 1.2 0 1.1 0.4 2.1 1.1 2.9 2q0.2 0.3 0.2 0.6 0 0.3-0.1 0.5c-0.8 1.3-1.9 2.4-3.1 3.2q-0.2 0.2-0.5 0.2-0.3 0-0.5-0.2c-1.2-0.8-2.2-1.9-3-3.2q-0.2-0.2-0.2-0.5 0.1-0.3 0.2-0.6c0.8-0.9 1.8-1.6 2.9-2z"/><path class="e" d="m31.4 29c0 0.4-0.2 0.8-0.4 1-0.3 0.3-0.7 0.5-1 0.5-0.4 0-0.8-0.2-1-0.5-0.3-0.2-0.4-0.6-0.4-1z"/><path class="e" d="m35.7 29c0 0.4-0.2 0.8-0.5 1-0.2 0.3-0.6 0.5-0.9 0.5-0.4 0-0.8-0.2-1-0.5-0.3-0.2-0.5-0.6-0.5-1z"/><path class="e" d="m29.2 31.9c0 0.3-0.1 0.7-0.4 1-0.2 0.2-0.6 0.4-1 0.4-0.3 0-0.7-0.2-1-0.4-0.2-0.3-0.4-0.7-0.4-1z"/><path class="e" d="m33.5 31.9c0 0.3-0.1 0.7-0.4 1-0.3 0.2-0.6 0.4-1 0.4-0.4 0-0.7-0.2-1-0.4-0.2-0.3-0.4-0.7-0.4-1z"/><path class="e" d="m37.8 31.9c0 0.3-0.1 0.7-0.4 1-0.3 0.2-0.6 0.4-1 0.4-0.4 0-0.7-0.2-1-0.4-0.3-0.3-0.4-0.7-0.4-1z"/><path class="e" d="m27.1 34.6c0 0.4-0.1 0.8-0.4 1-0.3 0.3-0.6 0.4-1 0.4-0.4 0-0.7-0.1-1-0.4-0.3-0.2-0.4-0.6-0.4-1z"/><path class="e" d="m31.4 34.6c0 0.4-0.2 0.8-0.4 1-0.3 0.3-0.7 0.4-1 0.4-0.4 0-0.8-0.1-1-0.4-0.3-0.2-0.4-0.6-0.4-1z"/><path class="e" d="m35.7 34.6c0 0.4-0.2 0.8-0.5 1-0.2 0.3-0.6 0.4-0.9 0.4-0.4 0-0.8-0.1-1-0.4-0.3-0.2-0.5-0.6-0.5-1z"/><path class="e" d="m39.9 34.6c0 0.4-0.1 0.7-0.4 1-0.3 0.2-0.6 0.4-1 0.4-0.3 0-0.7-0.2-0.9-0.4-0.3-0.3-0.5-0.6-0.5-1z"/><path class="e" d="m29.2 37.4c0 0.4-0.1 0.8-0.4 1-0.2 0.3-0.6 0.4-1 0.4-0.3 0-0.7-0.1-1-0.4-0.2-0.2-0.4-0.6-0.4-1z"/><path class="e" d="m33.5 37.4c0 0.4-0.1 0.8-0.4 1-0.3 0.3-0.6 0.4-1 0.4-0.4 0-0.7-0.1-1-0.4-0.2-0.2-0.4-0.6-0.4-1z"/><path class="e" d="m37.8 37.4c0 0.4-0.1 0.8-0.4 1-0.3 0.3-0.6 0.4-1 0.4-0.4 0-0.7-0.1-1-0.4-0.3-0.2-0.4-0.6-0.4-1z"/><path class="e" d="m31.4 40.2c0 0.4-0.2 0.7-0.4 1-0.3 0.3-0.7 0.4-1 0.4-0.4 0-0.8-0.1-1-0.4-0.3-0.3-0.4-0.6-0.4-1z"/><path class="e" d="m35.7 40.2c0 0.4-0.2 0.7-0.5 1-0.2 0.3-0.6 0.4-0.9 0.4-0.4 0-0.8-0.1-1-0.4-0.3-0.3-0.5-0.6-0.5-1z"/><path class="f" d="m26.9 21.2c2.3 0 4.1-1.8 4.1-4.1 0-2.3-1.8-4.1-4.1-4.1-2.3 0-4.1 1.8-4.1 4.1 0 2.3 1.8 4.1 4.1 4.1z"/><path  d="m26.9 19.7c1.4 0 2.6-1.2 2.6-2.6 0-1.4-1.2-2.6-2.6-2.6-1.4 0-2.6 1.2-2.6 2.6 0 1.4 1.2 2.6 2.6 2.6z"/><path class="a" d="m27.5 17.1c0.6 0 1-0.4 1-0.9 0-0.6-0.4-1-1-1-0.5 0-0.9 0.4-0.9 1 0 0.5 0.4 0.9 0.9 0.9z"/><path class="f" d="m36.9 21.2c2.3 0 4.1-1.8 4.1-4.1 0-2.3-1.8-4.1-4.1-4.1-2.2 0-4.1 1.8-4.1 4.1 0 2.3 1.9 4.1 4.1 4.1z"/><path  d="m36.9 19.7c1.5 0 2.6-1.2 2.6-2.6 0-1.4-1.1-2.6-2.6-2.6-1.4 0-2.5 1.2-2.5 2.6 0 1.4 1.1 2.6 2.5 2.6z"/><path class="a" d="m37.6 17.1c0.5 0 0.9-0.4 0.9-0.9 0-0.6-0.4-1-0.9-1-0.5 0-1 0.4-1 1 0 0.5 0.5 0.9 1 0.9z"/><path class="d" d="m40.6 46.5c0 1.1-0.6 2-1.3 2-0.8 0-1.4-0.9-1.4-2 0 1.1-0.6 2-1.3 2-0.7 0-1.3-0.9-1.3-2 0 1.1-0.6 2-1.4 2-0.7 0-1.3-0.9-1.3-2 0-1.5 1.8-2.8 4-2.8 2.2 0 4 1.3 4 2.8z"/><path class="d" d="m31.5 46.5c0 1.1-0.6 2-1.3 2-0.8 0-1.4-0.9-1.4-2 0 1.1-0.6 2-1.3 2-0.7 0-1.3-0.9-1.3-2 0 1.1-0.6 2-1.4 2-0.7 0-1.3-0.9-1.3-2 0-1.5 1.8-2.8 4-2.8 2.2 0 4 1.3 4 2.8z"/></svg>